<?xml version="1.0" encoding="UTF-8"?> <svg xmlns="http://www.w3.org/2000/svg" width="77" height="56" viewBox="0 0 77 56" fill="none"> <path d="M8.46318 5.41504C7.3385 5.41504 6.41064 6.35061 6.41064 7.48463C6.41064 8.61865 7.3385 9.55421 8.46318 9.55421C9.58785 9.55421 10.5157 8.61865 10.5157 7.48463C10.5157 6.35061 9.58785 5.41504 8.46318 5.41504ZM8.46318 8.22174C8.06954 8.22174 7.73214 7.88153 7.73214 7.48463C7.73214 7.08772 8.06954 6.74751 8.46318 6.74751C8.85682 6.74751 9.19422 7.08772 9.19422 7.48463C9.19422 7.88153 8.85682 8.22174 8.46318 8.22174Z" fill="url(#paint0_linear)"></path> <path d="M15.8017 5.41504C14.677 5.41504 13.7491 6.35061 13.7491 7.48463C13.7491 8.61865 14.677 9.55421 15.8017 9.55421C16.9264 9.55421 17.8542 8.61865 17.8542 7.48463C17.8542 6.35061 16.9264 5.41504 15.8017 5.41504ZM15.8017 8.22174C15.408 8.22174 15.0706 7.88153 15.0706 7.48463C15.0706 7.08772 15.408 6.74751 15.8017 6.74751C16.1953 6.74751 16.5327 7.08772 16.5327 7.48463C16.5327 7.88153 16.1953 8.22174 15.8017 8.22174Z" fill="url(#paint1_linear)"></path> <path d="M23.1402 5.41504C22.0155 5.41504 21.0876 6.35061 21.0876 7.48463C21.0876 8.61865 22.0155 9.55421 23.1402 9.55421C24.2649 9.55421 25.1927 8.61865 25.1927 7.48463C25.1927 6.35061 24.293 5.41504 23.1402 5.41504ZM23.1402 8.22174C22.7465 8.22174 22.4091 7.88153 22.4091 7.48463C22.4091 7.08772 22.7465 6.74751 23.1402 6.74751C23.5338 6.74751 23.8712 7.08772 23.8712 7.48463C23.8712 7.88153 23.5619 8.22174 23.1402 8.22174Z" fill="url(#paint2_linear)"></path> <path d="M68.9426 6.8042H56.8242V8.13667H68.9426V6.8042Z" fill="url(#paint3_linear)"></path> <path d="M71.3607 0H4.63929C2.08065 0 0 2.09794 0 4.67783V21.6598V28.9742V38.6701V45.9845V50.3505C0 52.9304 2.08065 55.0284 4.63929 55.0284H71.3888C73.9475 55.0284 76.0281 52.9304 76.0281 50.3505V45.9845V38.6701V28.9742V21.6598V4.67783C76 2.09794 73.9194 0 71.3607 0ZM74.6785 21.6598V28.9742V38.6701V45.9845V50.3505C74.6785 52.1933 73.1883 53.6959 71.3607 53.6959H4.63929C2.81169 53.6959 1.32149 52.1933 1.32149 50.3505V45.9845V38.6701V28.9742V21.6598V13.9485H74.6785V21.6598ZM74.6785 12.616H1.32149V4.67783C1.32149 2.83505 2.81169 1.33247 4.63929 1.33247H71.3888C73.2164 1.33247 74.7066 2.83505 74.7066 4.67783L74.6785 12.616Z" fill="url(#paint4_linear)"></path> <path d="M43.3843 19.7603H32.5593L24.9678 27.4432V38.3015L32.5875 45.9845H43.3562L50.9759 38.3015V27.4716L43.3843 19.7603ZM33.1779 44.7371L26.2612 37.7628V27.9252L33.1779 20.951H42.9064L49.7669 27.8685V37.7345H49.8231L42.9064 44.7087H33.1779V44.7371Z" fill="url(#paint5_linear)"></path> <path d="M42.2316 22.5669H33.7403L27.7795 28.6339V37.1674L33.7684 43.2061H42.2316L48.2205 37.1674V28.6339L42.2316 22.5669ZM34.2183 42.2138L28.7917 36.7422V29.0308L34.2183 23.5592H41.8661L47.2646 29.0025V36.7705H47.2927L41.8661 42.2422H34.2183V42.2138Z" fill="url(#paint6_linear)"></path> <path d="M33.9089 32.4613L32.475 33.9071L35.9615 37.4226L43.6374 29.5695L42.2034 28.2654L35.9615 34.5592L33.9089 32.4613Z" fill="url(#paint7_linear)"></path> <defs> <linearGradient id="paint0_linear" x1="6.41064" y1="9.54998" x2="10.5581" y2="5.43666" gradientUnits="userSpaceOnUse"> <stop stop-color="#409FBD"></stop> <stop offset="1" stop-color="#B93B1B"></stop> </linearGradient> <linearGradient id="paint1_linear" x1="13.7491" y1="9.54998" x2="17.8966" y2="5.43666" gradientUnits="userSpaceOnUse"> <stop stop-color="#409FBD"></stop> <stop offset="1" stop-color="#B93B1B"></stop> </linearGradient> <linearGradient id="paint2_linear" x1="21.0876" y1="9.54998" x2="25.2351" y2="5.43666" gradientUnits="userSpaceOnUse"> <stop stop-color="#409FBD"></stop> <stop offset="1" stop-color="#B93B1B"></stop> </linearGradient> <linearGradient id="paint3_linear" x1="56.8242" y1="8.13531" x2="57.1143" y2="5.49681" gradientUnits="userSpaceOnUse"> <stop stop-color="#409FBD"></stop> <stop offset="1" stop-color="#B93B1B"></stop> </linearGradient> <linearGradient id="paint4_linear" x1="3.7123e-07" y1="54.9721" x2="52.3802" y2="-17.3974" gradientUnits="userSpaceOnUse"> <stop stop-color="#409FBD"></stop> <stop offset="1" stop-color="#B93B1B"></stop> </linearGradient> <linearGradient id="paint5_linear" x1="24.9678" y1="45.9577" x2="51.2447" y2="19.8972" gradientUnits="userSpaceOnUse"> <stop stop-color="#409FBD"></stop> <stop offset="1" stop-color="#B93B1B"></stop> </linearGradient> <linearGradient id="paint6_linear" x1="27.7795" y1="43.185" x2="48.46" y2="22.7031" gradientUnits="userSpaceOnUse"> <stop stop-color="#409FBD"></stop> <stop offset="1" stop-color="#B93B1B"></stop> </linearGradient> <linearGradient id="paint7_linear" x1="32.475" y1="37.4132" x2="41.4739" y2="26.4437" gradientUnits="userSpaceOnUse"> <stop stop-color="#409FBD"></stop> <stop offset="1" stop-color="#B93B1B"></stop> </linearGradient> </defs> </svg> 